# xmcd
#
# Track frame offsets: 
#        150
#        20861
#        31462
#        54451
#        86381
#        101049
#        130414
#        153715
#        177003
#        201124
#        216755
#        245484
#
# Disc length: 3625 seconds
#
# Revision: 1
# Processed by: cddbd v1.5.2PL0 Copyright (c) Steve Scherf et al.
# Submitted via: ExactAudioCopy v1.0b6
#
DISCID=a70e270c
DTITLE=Philip Catherine - Côté Jardin
DYEAR=2012
DGENRE=Jazz
TTITLE0=Misty Cliffs
TTITLE1=Seven Teas
TTITLE2=Lost Land
TTITLE3=La Prima Vera
TTITLE4=Côté Jardin (ft. Isabelle Catherine)
TTITLE5=The Hostage
TTITLE6=Virtuous Woman
TTITLE7=Yellow Landscape
TTITLE8=Janet
TTITLE9=Je me suis fait tout petit
TTITLE10=Gilles et Mirona
TTITLE11=Karagoz
EXTD=YEAR: 2012
EXTT0=
EXTT1=
EXTT2=
EXTT3=
EXTT4=
EXTT5=
EXTT6=
EXTT7=
EXTT8=
EXTT9=
EXTT10=
EXTT11=
PLAYORDER=
